<svg width="24" height="23" viewBox="0 0 24 23" fill="none" xmlns="http://www.w3.org/2000/svg">
<path d="M17.5 0.916992C16.374 0.934507 15.2725 1.24885 14.3068 1.82826C13.3411 2.40768 12.5454 3.23166 12 4.21699C11.4547 3.23166 10.659 2.40768 9.69326 1.82826C8.72756 1.24885 7.62607 0.934507 6.50002 0.916992C4.70496 0.994983 3.01373 1.78025 1.7958 3.10122C0.577879 4.4222 -0.0677312 6.17152 1.93259e-05 7.96699C1.93259e-05 12.514 4.78602 17.48 8.80002 20.847C9.69624 21.6001 10.8294 22.013 12 22.013C13.1707 22.013 14.3038 21.6001 15.2 20.847C19.214 17.48 24 12.514 24 7.96699C24.0678 6.17152 23.4222 4.4222 22.2042 3.10122C20.9863 1.78025 19.2951 0.994983 17.5 0.916992ZM13.915 19.317C13.379 19.7684 12.7008 20.0159 12 20.0159C11.2993 20.0159 10.621 19.7684 10.085 19.317C4.94702 15.006 2.00002 10.87 2.00002 7.96699C1.93166 6.70171 2.36639 5.46072 3.20938 4.51469C4.05238 3.56866 5.23525 2.99434 6.50002 2.91699C7.76479 2.99434 8.94766 3.56866 9.79066 4.51469C10.6337 5.46072 11.0684 6.70171 11 7.96699C11 8.23221 11.1054 8.48656 11.2929 8.6741C11.4804 8.86164 11.7348 8.96699 12 8.96699C12.2652 8.96699 12.5196 8.86164 12.7071 8.6741C12.8947 8.48656 13 8.23221 13 7.96699C12.9317 6.70171 13.3664 5.46072 14.2094 4.51469C15.0524 3.56866 16.2353 2.99434 17.5 2.91699C18.7648 2.99434 19.9477 3.56866 20.7907 4.51469C21.6337 5.46072 22.0684 6.70171 22 7.96699C22 10.87 19.053 15.006 13.915 19.313V19.317Z" fill="#3B3748"/>
</svg>
