<svg width="20" height="20" viewBox="0 0 20 20" fill="none" xmlns="http://www.w3.org/2000/svg">
<path d="M19.1667 9.16699H0.833333C0.373096 9.16699 0 9.54009 0 10.0003C0 10.4606 0.373096 10.8337 0.833333 10.8337H19.1667C19.6269 10.8337 20 10.4606 20 10.0003C20 9.54009 19.6269 9.16699 19.1667 9.16699Z" fill="#3B3748"/>
<path d="M19.1667 3.33301H0.833333C0.373096 3.33301 0 3.7061 0 4.16634C0 4.62658 0.373096 4.99967 0.833333 4.99967H19.1667C19.6269 4.99967 20 4.62658 20 4.16634C20 3.7061 19.6269 3.33301 19.1667 3.33301Z" fill="#3B3748"/>
<path d="M19.1667 15H0.833333C0.373096 15 0 15.3731 0 15.8333C0 16.2936 0.373096 16.6667 0.833333 16.6667H19.1667C19.6269 16.6667 20 16.2936 20 15.8333C20 15.3731 19.6269 15 19.1667 15Z" fill="#3B3748"/>
</svg>
