<svg width="60" height="44" viewBox="0 0 60 44" fill="none" xmlns="http://www.w3.org/2000/svg">
<path d="M12.2474 0H5.14494L5.17373 15.1942H7.69361V2.30835H12.2474V0Z" fill="#3B3748"/>
<path fill-rule="evenodd" clip-rule="evenodd" d="M7.84522 25.4547H5.40932V28.9785C4.45341 29.1014 3.52966 29.4078 2.68906 29.8816L2.68804 29.8822C1.87179 30.3493 1.19077 31.0206 0.711755 31.8303L0.710709 31.8321C0.228747 32.669 -0.0165793 33.6214 0.000980158 34.5872C-0.0175856 35.5515 0.22791 36.5025 0.710896 37.3372L0.711559 37.3383C1.18897 38.1495 1.87052 38.8213 2.68824 39.2869C3.52741 39.7657 4.45203 40.0745 5.40932 40.1963V43.7142H7.84522V40.1962C8.80229 40.0737 9.72673 39.765 10.5662 39.2869C11.3839 38.8214 12.0655 38.1495 12.543 37.3383L12.3898 37.2477L12.5439 37.3367C13.0241 36.501 13.2693 35.551 13.2536 34.5872C13.2686 33.6219 13.0235 32.6703 12.5441 31.8325L12.5428 31.8303C12.0638 31.0206 11.3827 30.3493 10.5665 29.8822L10.5655 29.8816C9.72487 29.4078 8.80113 29.1014 7.84522 28.9785V25.4547ZM5.38683 37.8415C4.60699 37.7121 3.88322 37.3482 3.31315 36.796C3.03654 36.5025 2.82185 36.1562 2.68187 35.7779C2.54144 35.3984 2.47909 34.9944 2.49854 34.5902L2.49894 34.5818L2.49856 34.5735C2.48001 34.1692 2.54281 33.7654 2.68324 33.3859C2.82317 33.0077 3.03734 32.6614 3.31315 32.3673C3.88429 31.8167 4.60758 31.4532 5.38683 31.3222V37.8415ZM10.5304 35.7797C10.3906 36.1567 10.1771 36.5021 9.90234 36.7957C9.32807 37.3424 8.60258 37.7008 7.82273 37.8257V31.3278C8.60363 31.4587 9.32868 31.8222 9.90193 32.3728C10.1767 32.6677 10.3903 33.0141 10.5302 33.3922C10.6706 33.7717 10.734 34.1753 10.7166 34.5796L10.7163 34.5873L10.7166 34.595C10.7341 34.9984 10.6708 35.4012 10.5304 35.7797Z" fill="#3B3748"/>
<path fill-rule="evenodd" clip-rule="evenodd" d="M20.9466 2.27927C22.0073 3.05724 22.7443 4.28433 23.0126 5.81127L23.1727 6.7238L15.0791 8.14914C15.3154 8.91753 15.7456 9.52654 16.3024 9.91976C16.9021 10.3432 17.659 10.524 18.5057 10.3743C19.2647 10.2419 19.8146 9.95286 20.2243 9.54037C20.6361 9.1258 20.9181 8.57479 21.121 7.89995L21.1755 7.71891L23.2131 8.46751L23.1798 8.61962C22.9548 9.64629 22.4159 10.5774 21.638 11.2836C20.8613 11.9887 19.8848 12.4347 18.8437 12.56C15.9436 13.0691 13.1346 11.2559 12.5545 7.95193C12.3998 7.23233 12.3929 6.48878 12.5343 5.76642C12.6758 5.04291 12.9631 4.35583 13.3786 3.74701C13.7941 3.13819 14.3291 2.62039 14.951 2.22512C15.5725 1.83005 16.2679 1.56562 16.9948 1.44794C18.5133 1.182 19.8854 1.50093 20.9466 2.27927ZM17.3087 3.46983C18.0423 3.34093 18.7303 3.44085 19.2842 3.75029C19.7879 4.03174 20.1907 4.4919 20.4189 5.13416L14.8248 6.12702C14.8957 5.51629 15.1491 4.9391 15.5546 4.47233C16.009 3.94919 16.6274 3.59573 17.3087 3.46983Z" fill="#3B3748"/>
<path fill-rule="evenodd" clip-rule="evenodd" d="M34.954 0H26.8495L26.5929 4.70196C26.4907 6.55195 26.2188 7.5635 25.7872 8.38617H24.6474V13.0906H26.954V10.6777H34.1485V13.0906H36.4945V8.38617H34.954V0ZM28.8483 4.80023L28.9853 2.30835H32.4451V8.38681L28.2064 8.40201C28.5858 7.55766 28.7359 6.65597 28.8483 4.80123L28.8483 4.80023Z" fill="#3B3748"/>
<path d="M11.987 15.7758H14.5016V19.7974H18.9301V15.7758H21.4503V26.4591H18.9301V22.027H14.5016V26.4591H11.987V15.7758Z" fill="#3B3748"/>
<path d="M26.4451 15.7758H24.0092V26.4591H26.5709L31.2109 19.4215V26.4591H33.6468V15.7758H31.0851L26.4451 22.8135V15.7758Z" fill="#3B3748"/>
<path d="M41.1594 15.5648C39.9111 15.3433 38.846 15.4839 38.0495 15.9016C37.2503 16.3208 36.7307 17.0154 36.5797 17.8733C36.5103 18.2297 36.5104 18.5962 36.5801 18.9526L36.6126 19.119L38.8634 18.7935L38.8363 18.6158C38.817 18.4892 38.8169 18.3603 38.8359 18.2337C38.8782 18.009 39.0626 17.8018 39.3995 17.6706C39.7363 17.5395 40.2053 17.4952 40.7547 17.5921C41.3078 17.6898 41.6825 17.8742 41.9016 18.1037C42.114 18.3261 42.1951 18.6059 42.1341 18.9427C42.0718 19.2869 41.8988 19.5569 41.6128 19.7211C41.3227 19.8877 40.8924 19.9586 40.2942 19.8508L40.2927 19.8505L39.2976 19.6801L38.9378 21.7177L39.9731 21.9005C40.6221 22.0156 41.0843 22.2226 41.3626 22.4922C41.6319 22.7533 41.7418 23.0848 41.6674 23.4988C41.5926 23.9155 41.3604 24.2378 40.9867 24.4324C40.608 24.6297 40.0688 24.703 39.3773 24.581C38.8679 24.4897 38.4081 24.2821 38.1001 23.9912C37.7968 23.7047 37.6417 23.3408 37.7169 22.9086L37.7172 22.9068C37.7434 22.7466 37.8017 22.5933 37.8886 22.4561L37.9913 22.294L35.9937 21.2214L35.904 21.3559C35.6638 21.7161 35.5013 22.1225 35.4269 22.5491C35.2579 23.5104 35.4942 24.4222 36.1109 25.1504C36.7254 25.8759 37.7059 26.4062 39.0062 26.6364C40.4283 26.886 41.605 26.7219 42.4741 26.2438C43.3467 25.7638 43.8946 24.9746 44.064 24.0115C44.187 23.3212 44.0519 22.7186 43.7264 22.2119C43.4818 21.8311 43.1335 21.5102 42.7179 21.2457C43.1057 21.1262 43.4626 20.9172 43.7585 20.6329C44.1725 20.2351 44.444 19.7118 44.531 19.1441C44.6736 18.3298 44.4958 17.5431 43.9362 16.9032C43.38 16.2671 42.4629 15.7941 41.1594 15.5648Z" fill="#3B3748"/>
<path d="M49.8398 15.7758H46.6337L46.6163 26.4591H49.0525V19.8786L51.729 26.4591H53.7781L56.4775 19.8723V26.4591H58.8909V15.7758H55.6733L52.7592 23.3343L49.8398 15.7758Z" fill="#3B3748"/>
<path fill-rule="evenodd" clip-rule="evenodd" d="M23.0843 29.8432C24.1449 30.6211 24.8832 31.8481 25.1544 33.3749L25.3146 34.2877L17.2211 35.713C17.4574 36.4791 17.8862 37.088 18.4418 37.4818C19.0401 37.9058 19.7955 38.0879 20.642 37.9383C21.4011 37.8058 21.9524 37.5167 22.3628 37.1042C22.7751 36.6897 23.0571 36.1389 23.2571 35.4645L23.3111 35.2826L25.3496 36.0315L25.316 36.1838C25.0894 37.2097 24.5501 38.1397 23.7725 38.8456C22.9962 39.5504 22.0205 39.997 20.9801 40.1239C18.0797 40.6332 15.2709 38.8084 14.6908 35.516C14.5353 34.7959 14.528 34.0517 14.6693 33.3286C14.8109 32.6044 15.0986 31.9168 15.5148 31.3076C15.931 30.6985 16.467 30.1807 17.0901 29.786C17.7127 29.3915 18.4091 29.1281 19.1369 29.0119C20.6526 28.7459 22.0232 29.065 23.0843 29.8432ZM19.4444 31.0339C20.1812 30.9048 20.8707 31.0048 21.4246 31.3142C21.9285 31.5957 22.3302 32.056 22.556 32.6986L16.9424 33.713C17.0094 33.0955 17.2631 32.511 17.6725 32.0393C18.1307 31.5112 18.7561 31.1563 19.4444 31.0339Z" fill="#3B3748"/>
<path d="M27.1618 32.4319C26.8924 33.1172 26.7636 33.8497 26.783 34.5859C26.7516 35.3244 26.8725 36.0616 27.1381 36.7514C27.4045 37.4432 27.8108 38.0725 28.3314 38.6C28.8521 39.1275 29.476 39.5417 30.164 39.8168C30.8503 40.0912 31.5857 40.2213 32.3244 40.199C33.2966 40.228 34.2575 39.9836 35.0979 39.4933C35.9399 39.0021 36.6269 38.284 37.0805 37.4208L37.1581 37.2731L35.1183 36.0168L35.0351 36.2011C34.8028 36.7154 34.4207 37.1476 33.9387 37.4411C33.4566 37.7346 32.8973 37.8754 32.3337 37.8456H32.3243C31.4553 37.8456 30.7138 37.5309 30.1889 36.9722C29.6634 36.4129 29.3427 35.5958 29.3427 34.5704C29.3427 33.5473 29.6775 32.7299 30.2113 32.1696C30.745 31.6092 31.4875 31.2954 32.3243 31.2954L32.3312 31.2952C32.8721 31.2743 33.4071 31.4136 33.8693 31.6956C34.3314 31.9775 34.7001 32.3895 34.9292 32.88L35.013 33.0592L37.0876 31.8072L37.0238 31.6633C36.2419 29.8987 34.6285 28.9534 32.3253 28.9532C31.5876 28.9452 30.8559 29.0862 30.1739 29.3678C29.4917 29.6494 28.8732 30.066 28.3556 30.5925C27.838 31.119 27.432 31.7446 27.1618 32.4319Z" fill="#3B3748"/>
<path d="M38.1612 29.2512H47.1467V31.5427H43.9253V39.9345H41.4055L41.3886 31.5371H38.1612V29.2512Z" fill="#3B3748"/>
<path d="M51.7434 6.45138C51.5472 6.45138 51.359 6.52935 51.2202 6.66823C51.0813 6.80713 51.0033 6.99558 51.0033 7.19216C51.0033 7.38874 51.0813 7.57719 51.2202 7.71609C51.359 7.85497 51.5472 7.93294 51.7434 7.93294H59.2599C59.4561 7.93294 59.6443 7.85496 59.7831 7.71609C59.9219 7.5772 60 7.38875 60 7.19216C60 6.99557 59.9219 6.80712 59.7831 6.66823C59.6443 6.52935 59.4561 6.45138 59.2599 6.45138H51.7434Z" fill="#3B3748"/>
<path d="M37.4978 6.83954C37.4978 3.9007 39.7958 1.50861 42.7057 1.23244L42.8158 1.30172L43.1139 2.10679L43.0756 2.23132C41.7757 3.15484 40.9392 4.64207 40.9392 6.31378C40.9392 8.64635 42.5721 10.6256 44.812 11.2019L44.8922 11.3048L44.8977 12.1643L44.8188 12.2683C44.3255 12.402 43.8062 12.4733 43.2707 12.4733C40.098 12.4733 37.4978 9.9664 37.4978 6.83954Z" fill="#3B3748"/>
<path d="M44.4549 1.48003L44.5689 1.40912C47.2781 1.74891 49.4108 3.96025 49.4108 6.6858C49.4108 8.45391 48.5087 10.0116 47.1379 10.9748L47.0046 10.9662L46.3656 10.3811L46.345 10.2489C46.8257 9.40849 47.0979 8.44759 47.0979 7.4261C47.0979 5.33952 45.9589 3.49226 44.2145 2.42726L44.1692 2.30062L44.4549 1.48003Z" fill="#3B3748"/>
</svg>
