<svg width="14" height="8" viewBox="0 0 14 8" fill="none" xmlns="http://www.w3.org/2000/svg">
<path d="M1.41397 0H12.586C12.7837 4.22243e-05 12.977 0.0587139 13.1414 0.168598C13.3058 0.278482 13.434 0.434646 13.5096 0.617346C13.5853 0.800046 13.6051 1.00108 13.5666 1.19503C13.528 1.38898 13.4328 1.56715 13.293 1.707L7.70697 7.293C7.51944 7.48047 7.26514 7.58579 6.99997 7.58579C6.73481 7.58579 6.4805 7.48047 6.29297 7.293L0.706971 1.707C0.567162 1.56715 0.471956 1.38898 0.433388 1.19503C0.39482 1.00108 0.414624 0.800046 0.490294 0.617346C0.565964 0.434646 0.694103 0.278482 0.858513 0.168598C1.02292 0.0587139 1.21622 4.22243e-05 1.41397 0Z" fill="#5100b8"/>
</svg>
